<svg width="32" height="32" viewBox="0 0 32 32" fill="none" xmlns="http://www.w3.org/2000/svg">
<path fill-rule="evenodd" clip-rule="evenodd" d="M9.60408 15.8458C9.60408 19.205 12.3273 21.9282 15.6865 21.9282C19.0457 21.9282 21.7689 19.205 21.7689 15.8458C21.7689 12.4866 19.0457 9.76337 15.6865 9.76337C12.3273 9.76337 9.60408 12.4866 9.60408 15.8458Z" fill="#FF9933"/>
<path fill-rule="evenodd" clip-rule="evenodd" d="M26.6076 14.8771H24.386C23.8652 14.8771 23.4396 15.3027 23.4396 15.8235V15.8683C23.4396 16.3891 23.8652 16.8147 24.386 16.8147H26.6076C27.1284 16.8147 27.554 16.3891 27.554 15.8683V15.8235C27.554 15.3027 27.1284 14.8771 26.6076 14.8771Z" fill="#FF9933"/>
<path fill-rule="evenodd" clip-rule="evenodd" d="M7.93264 15.868V15.8232C7.93264 15.3024 7.50704 14.8768 6.98624 14.8768H4.76464C4.24384 14.8768 3.81744 15.3024 3.81744 15.8232V15.868C3.81744 16.3888 4.24384 16.8144 4.76464 16.8144H6.98624C7.50704 16.8144 7.93264 16.3888 7.93264 15.868Z" fill="#FF9933"/>
<path fill-rule="evenodd" clip-rule="evenodd" d="M21.6397 5.57859L21.6013 5.55619C21.1501 5.29619 20.5685 5.45139 20.3077 5.90259L19.1973 7.82738C18.9365 8.27779 19.0925 8.86018 19.5429 9.12018L19.5821 9.14258C20.0325 9.40258 20.6149 9.24658 20.8749 8.79538L21.9861 6.87139C22.2461 6.42099 22.0901 5.83859 21.6397 5.57859Z" fill="#FF9933"/>
<path fill-rule="evenodd" clip-rule="evenodd" d="M11.8287 22.5715L11.7903 22.5491C11.3391 22.2883 10.7575 22.4443 10.4975 22.8955L9.38632 24.8195C9.12632 25.2707 9.28152 25.8523 9.73272 26.1123L9.77112 26.1355C10.2223 26.3955 10.8039 26.2395 11.0639 25.7883L12.1751 23.8643C12.4351 23.4131 12.2799 22.8315 11.8287 22.5715Z" fill="#FF9933"/>
<path fill-rule="evenodd" clip-rule="evenodd" d="M20.8748 22.8954C20.6148 22.445 20.0324 22.289 19.582 22.549L19.5428 22.5714C19.0924 22.8314 18.9364 23.413 19.1972 23.8642L20.3084 25.789C20.5684 26.2394 21.15 26.3954 21.6012 26.1354L21.6396 26.1122C22.0908 25.8522 22.246 25.2706 21.986 24.8194L20.8748 22.8954Z" fill="#FF9933"/>
<path fill-rule="evenodd" clip-rule="evenodd" d="M10.4974 8.79577C10.7574 9.24697 11.339 9.40217 11.7902 9.14217L11.8286 9.11977C12.2798 8.85977 12.435 8.27817 12.175 7.82697L11.0638 5.90297C10.8038 5.45177 10.2222 5.29577 9.77105 5.55657L9.73265 5.57897C9.28145 5.83897 9.12625 6.42057 9.38625 6.87177L10.4974 8.79577Z" fill="#FF9933"/>
<path fill-rule="evenodd" clip-rule="evenodd" d="M8.63616 10.6567L6.71216 9.54554C6.26096 9.28554 5.67936 9.44154 5.41936 9.89194L5.39696 9.93114C5.13616 10.3815 5.29216 10.9639 5.74336 11.2239L7.66736 12.3351C8.11856 12.5951 8.70016 12.4391 8.96016 11.9887L8.98256 11.9495C9.24336 11.4991 9.08656 10.9167 8.63616 10.6567Z" fill="#FF9933"/>
<path fill-rule="evenodd" clip-rule="evenodd" d="M25.6291 20.4676L23.7043 19.3564C23.2539 19.0964 22.6723 19.2516 22.4123 19.7028L22.3899 19.7412C22.1291 20.1924 22.2851 20.774 22.7355 21.034L24.6603 22.1452C25.1115 22.4052 25.6931 22.25 25.9531 21.7996L25.9755 21.7604C26.2355 21.3092 26.0795 20.7276 25.6291 20.4676Z" fill="#FF9933"/>
<path fill-rule="evenodd" clip-rule="evenodd" d="M8.96039 19.7028C8.69959 19.2524 8.11879 19.0964 7.66759 19.3564L5.74359 20.4676C5.29239 20.7276 5.13639 21.3092 5.39639 21.7604L5.41959 21.7996C5.67959 22.25 6.26119 22.4052 6.71159 22.1452L8.63639 21.0348C9.08679 20.774 9.24359 20.1924 8.98279 19.7412L8.96039 19.7028Z" fill="#FF9933"/>
<path fill-rule="evenodd" clip-rule="evenodd" d="M22.4119 11.9883C22.6719 12.4387 23.2543 12.5947 23.7047 12.3347L25.6287 11.2235C26.0799 10.9635 26.2359 10.3819 25.9759 9.93073L25.9527 9.89233C25.6927 9.44113 25.1111 9.28593 24.6607 9.54593L22.7359 10.6563C22.2847 10.9171 22.1287 11.4987 22.3895 11.9499L22.4119 11.9883Z" fill="#FF9933"/>
<path fill-rule="evenodd" clip-rule="evenodd" d="M15.6638 8.09225H15.7086C16.2294 8.09225 16.655 7.66665 16.655 7.14585V4.92425C16.655 4.40345 16.2294 3.97705 15.7086 3.97705H15.6638C15.143 3.97705 14.7174 4.40345 14.7174 4.92425V7.14585C14.7174 7.66665 15.143 8.09225 15.6638 8.09225Z" fill="#FF9933"/>
<path fill-rule="evenodd" clip-rule="evenodd" d="M15.7084 23.5989H15.6636C15.1428 23.5989 14.7172 24.0245 14.7172 24.5453V26.7677C14.7172 27.2877 15.1428 27.7141 15.6636 27.7141H15.7084C16.2292 27.7141 16.6548 27.2877 16.6548 26.7677V24.5453C16.6548 24.0245 16.2292 23.5989 15.7084 23.5989Z" fill="#FF9933"/>
</svg>
